<svg width="645" height="194" viewBox="0 0 645 194" fill="none" xmlns="http://www.w3.org/2000/svg">
<g clip-path="url(#clip0_1_28)">
<path d="M165.332 28.3185C127.669 -9.4395 66.1872 -9.4395 28.5243 28.3185C1.2445 55.6671 -7.10277 96.4869 6.74016 132.408C7.14773 133.632 8.16593 134.45 9.38718 134.653C10.6085 134.857 11.8297 134.45 12.8479 133.632L87.5629 58.7287C88.1736 58.1166 88.5812 57.0958 88.5812 56.0751V50.564C91.6344 49.9519 94.2815 48.319 96.7237 46.074C103.239 39.5421 103.239 28.9302 96.7237 22.3983C90.2083 15.8665 79.6231 15.8665 73.1077 22.3983C66.5924 28.9302 66.5924 39.5421 73.1077 46.074C75.3473 48.3191 78.1974 49.9522 81.2504 50.564V54.6456L11.8285 124.243C1.64931 92.404 9.99654 57.5029 33.8154 33.6236C68.6288 -1.27772 125.224 -1.27772 160.241 33.6236C195.054 68.525 195.054 125.263 160.241 160.368C136.421 184.248 101.609 192.615 69.8496 182.411L98.3506 153.838H112.601C113.212 156.898 114.841 159.553 117.08 162C123.595 168.532 134.181 168.532 140.696 162C147.211 155.469 147.211 144.857 140.696 138.325C134.181 131.793 123.595 131.793 117.08 138.325C114.84 140.57 113.211 143.428 112.601 146.488H96.9248C95.9065 146.488 95.0929 146.897 94.2777 147.509L60.2822 181.184C59.4686 182 59.061 183.43 59.2641 184.654C59.4671 185.47 59.6716 186.083 60.2822 186.491C60.6898 186.9 61.096 187.103 61.5036 187.305C97.3339 201.39 138.051 192.817 165.128 165.672C202.993 127.71 202.993 66.0728 165.332 28.3147V28.3185ZM78.4022 40.7684C74.7384 37.0953 74.7384 31.1758 78.4022 27.5028C82.066 23.8298 87.9706 23.8298 91.6344 27.5028C95.2981 31.1758 95.2981 37.0953 91.6344 40.7684C87.9706 44.4414 82.0675 44.4414 78.4022 40.7684ZM121.969 143.429C125.633 139.756 131.537 139.756 135.201 143.429C138.865 147.102 138.865 153.021 135.201 156.695C131.537 160.368 125.633 160.368 121.969 156.695C118.508 153.021 118.508 147.102 121.969 143.429Z" fill="#F13A59"/>
<path d="M137.645 60.7696C144.16 54.2378 144.16 43.6258 137.645 37.094C131.129 30.5622 120.544 30.5622 114.029 37.094C108.329 42.8086 107.718 51.3803 111.789 57.9123L21.602 148.327C20.1763 149.756 20.1763 152.205 21.602 153.633C23.0277 155.063 25.4704 155.063 26.8948 153.633L117.082 63.2183C123.394 67.2999 132.148 66.4843 137.645 60.7696ZM119.323 42.4015C122.987 38.7285 128.892 38.7285 132.555 42.4015C136.219 46.0746 136.219 51.9941 132.555 55.6671C128.892 59.3401 122.987 59.3401 119.323 55.6671C115.658 51.9928 115.658 46.0746 119.323 42.4015Z" fill="#F13A59"/>
<path d="M117.49 107.304C118.101 110.365 119.73 113.018 121.969 115.467C128.484 121.999 139.07 121.999 145.585 115.467C152.1 108.935 152.1 98.3231 145.585 91.7913C139.07 85.2594 128.484 85.2594 121.969 91.7913C119.73 94.0364 118.1 96.8937 117.49 99.9545L109.144 99.9558C108.126 99.9558 107.312 100.364 106.497 100.977L40.5363 167.309C39.1106 168.738 39.1106 171.187 40.5363 172.614C41.9621 174.043 44.4048 174.043 45.8292 172.614L110.772 107.507H117.49L117.49 107.304ZM127.263 97.0989C130.927 93.4259 136.832 93.4259 140.495 97.0989C144.159 100.772 144.159 106.691 140.495 110.365C136.832 114.038 130.927 114.038 127.263 110.365C123.598 106.691 123.598 100.772 127.263 97.0989Z" fill="#F13A59"/>
</g>
<path d="M264.432 140.04C261.312 140.04 258.157 139.555 254.968 138.584C251.848 137.613 248.901 136.296 246.128 134.632C243.424 132.899 241.101 130.992 239.16 128.912L248.416 119.968C250.496 122.117 252.992 123.851 255.904 125.168C258.885 126.485 261.659 127.144 264.224 127.144C267.483 127.144 270.221 126.208 272.44 124.336C274.728 122.395 275.872 120.107 275.872 117.472C275.872 115.323 275.075 113.485 273.48 111.96C271.885 110.365 269.909 109.221 267.552 108.528C261.381 106.864 256.112 105.096 251.744 103.224C247.445 101.352 244.256 98.8907 242.176 95.84C240.096 92.7893 239.333 88.6987 239.888 83.568C240.373 79.5467 241.691 76.2187 243.84 73.584C246.059 70.88 248.832 68.8693 252.16 67.552C255.557 66.2347 259.301 65.576 263.392 65.576C267.067 65.576 270.915 66.1653 274.936 67.344C278.957 68.4533 282.944 70.3253 286.896 72.96L278.056 82.112C276.045 81.0027 273.861 80.0667 271.504 79.304C269.147 78.5413 266.72 78.1253 264.224 78.056C262.283 77.9867 260.411 78.1947 258.608 78.68C256.875 79.096 255.419 79.8587 254.24 80.968C253.061 82.008 252.437 83.4293 252.368 85.232C252.299 87.2427 252.819 88.8027 253.928 89.912C255.037 91.0213 256.563 91.9227 258.504 92.616C260.515 93.3093 262.837 94.072 265.472 94.904C270.325 96.2213 274.451 97.7467 277.848 99.48C281.245 101.144 283.845 103.397 285.648 106.24C287.451 109.013 288.352 112.757 288.352 117.472C288.352 121.701 287.277 125.515 285.128 128.912C282.979 132.309 280.101 135.013 276.496 137.024C272.891 139.035 268.869 140.04 264.432 140.04ZM319.781 140.352C314.789 140.352 310.386 139.277 306.573 137.128C302.829 134.909 299.882 131.859 297.733 127.976C295.653 124.024 294.613 119.448 294.613 114.248C294.613 105.096 296.901 98.1973 301.477 93.552C306.122 88.8373 312.224 86.48 319.781 86.48C324.704 86.48 329.037 87.52 332.781 89.6C336.594 91.68 339.576 94.8 341.725 98.96C343.874 103.051 344.949 108.147 344.949 114.248C344.949 119.448 343.874 124.024 341.725 127.976C339.576 131.859 336.594 134.909 332.781 137.128C329.037 139.277 324.704 140.352 319.781 140.352ZM319.781 128.392C322.624 128.392 325.016 127.733 326.957 126.416C328.968 125.029 330.458 123.261 331.429 121.112C332.469 118.963 332.989 116.675 332.989 114.248C332.989 109.88 331.845 106.171 329.557 103.12C327.338 100 324.08 98.44 319.781 98.44C315.621 98.44 312.362 99.9307 310.005 102.912C307.717 105.893 306.573 109.672 306.573 114.248C306.573 116.744 307.093 119.067 308.133 121.216C309.173 123.365 310.664 125.099 312.605 126.416C314.616 127.733 317.008 128.392 319.781 128.392ZM384.021 77.952C381.109 77.952 378.786 78.1947 377.053 78.68C375.319 79.1653 374.071 80.0667 373.309 81.384C372.615 82.7013 372.234 84.6427 372.165 87.208H379.861V98.128H372.165V139.208H359.893V98.128H352.301V87.208H359.997C359.997 80.2053 361.903 74.7627 365.717 70.88C369.53 66.9973 375.631 65.264 384.021 65.68V77.952ZM397.877 115.392V98.544H390.285V87H397.877V66.2H410.149V87H418.261V98.544H410.149V115.392C410.149 118.512 410.392 120.869 410.877 122.464C411.362 124.059 412.021 125.168 412.853 125.792C413.754 126.347 414.725 126.659 415.765 126.728C416.874 126.797 417.984 126.832 419.093 126.832H420.861V139.208H419.301C415.488 139.208 412.229 138.931 409.525 138.376C406.821 137.821 404.602 136.747 402.869 135.152C401.136 133.488 399.853 131.096 399.021 127.976C398.258 124.787 397.877 120.592 397.877 115.392ZM482.847 77.64H462.255V139H449.775V77.64H429.183V66.2H482.847V77.64ZM527.445 117.784H491.045C491.322 120.904 492.501 123.296 494.581 124.96C496.661 126.624 499.226 127.595 502.277 127.872C505.327 128.08 508.447 127.664 511.637 126.624C514.895 125.515 517.807 123.851 520.373 121.632L527.237 131.096C523.423 134.285 519.541 136.573 515.589 137.96C511.706 139.277 507.858 139.936 504.045 139.936C495.239 139.936 488.618 137.475 484.181 132.552C479.813 127.629 477.629 120.661 477.629 111.648C477.629 106.517 478.634 102.045 480.645 98.232C482.725 94.4187 485.637 91.472 489.381 89.392C493.194 87.312 497.666 86.3067 502.797 86.376C514.029 86.5147 521.517 90.9173 525.261 99.584C526.301 102.08 526.959 104.819 527.237 107.8C527.583 110.781 527.653 114.109 527.445 117.784ZM503.941 98.024C499.711 98.024 496.487 99.168 494.269 101.456C492.119 103.744 491.045 106.275 491.045 109.048H516.733C516.733 106.205 515.623 103.675 513.405 101.456C511.255 99.168 508.101 98.024 503.941 98.024ZM580.227 131.824C576.761 135.152 573.017 137.44 568.995 138.688C564.974 139.936 561.022 140.248 557.139 139.624C553.257 139 549.721 137.544 546.531 135.256C543.342 132.968 540.777 129.952 538.835 126.208C536.963 122.464 536.027 118.061 536.027 113C536.027 107.8 536.963 103.328 538.835 99.584C540.707 95.7707 543.238 92.7893 546.427 90.64C549.617 88.4213 553.153 87.0693 557.035 86.584C560.918 86.0987 564.905 86.5493 568.995 87.936C573.086 89.2533 576.934 91.576 580.539 94.904L572.219 103.744C570.139 101.248 567.747 99.688 565.043 99.064C562.409 98.44 559.809 98.6133 557.243 99.584C554.747 100.555 552.667 102.219 551.003 104.576C549.409 106.864 548.611 109.672 548.611 113C548.611 116.605 549.409 119.587 551.003 121.944C552.667 124.301 554.747 125.965 557.243 126.936C559.739 127.837 562.374 127.976 565.147 127.352C567.921 126.659 570.451 125.099 572.739 122.672L580.227 131.824ZM635.016 139H622.536V109.048C622.536 105.512 621.6 102.947 619.728 101.352C617.925 99.7573 615.429 98.96 612.24 98.96C609.328 98.96 606.97 99.896 605.168 101.768C603.434 103.571 602.568 105.477 602.568 107.488V139H590.088V66.2H602.568V89.808C604.232 88.4213 606.208 87.52 608.496 87.104C610.853 86.6187 613.28 86.48 615.776 86.688C622.085 87.4507 626.869 89.8773 630.128 93.968C633.386 97.9893 635.016 103.016 635.016 109.048V139Z" fill="#F13A59"/>
<defs>
<clipPath id="clip0_1_28">
<rect width="195" height="194" fill="white"/>
</clipPath>
</defs>
</svg>
